<svg id="visual" viewBox="0 0 540 960" width="540" height="960" xmlns="http://www.w3.org/2000/svg" xmlns:xlink="http://www.w3.org/1999/xlink" version="1.1"><path d="M0 874L22.5 879.3C45 884.7 90 895.3 135 888.7C180 882 225 858 270 845.2C315 832.3 360 830.7 405 835C450 839.3 495 849.7 517.5 854.8L540 860L540 961L517.5 961C495 961 450 961 405 961C360 961 315 961 270 961C225 961 180 961 135 961C90 961 45 961 22.5 961L0 961Z" fill="#BDEDE0" stroke-linecap="round" stroke-linejoin="miter"></path></svg>